<?xml version="1.0"?>
<svg xmlns="http://www.w3.org/2000/svg" viewBox="0 -35 512 512" width="512px" height="512px"><g><path d="m512 97.75v-97.75h-512v97.75zm-71.75-63.75h30v30h-30zm-47.582031 0h30v30h-30zm-48.085938 0h30v30h-30zm0 0" data-original="#000000" class="active-path" fill="#000000"/><path d="m0 127.75v314.25h512v-314.25zm185.691406 208.980469-19.324218 22.949219-90.121094-75.894532 90.121094-75.890625 19.324218 22.945313-62.871094 52.945312zm45.527344 45.96875-27.871094-11.097657 74.359375-186.730468 27.871094 11.101562zm114.414062-23.019531-19.324218-22.949219 62.871094-52.945313-62.871094-52.941406 19.324218-22.949219 90.121094 75.890625zm0 0" data-original="#000000" class="active-path" fill="#000000"/></g> </svg>
