<?xml version="1.0"?>
<svg xmlns="http://www.w3.org/2000/svg" height="512px" viewBox="-96 0 512 512.00026" width="512px"><g><path d="m69.992188 325.621094c.179687 1.570312.199218 2.734375.167968 3.503906l-.003906 26.152344h179.933594v-25.566406l-.007813-.515626c-.039062-1.132812.011719-2.328124.132813-3.574218zm0 0" data-original="#000000" class="active-path" fill="#000000"/><path d="m70.148438 387.660156c0 31.125 25.324218 56.449219 56.449218 56.449219h18.164063v52.898437c0 8.28125 6.710937 14.992188 14.992187 14.992188 8.277344 0 14.988282-6.710938 14.988282-14.992188v-52.898437h18.898437c31.125 0 56.449219-25.324219 56.449219-56.449219v-2.402344h-179.9375zm0 0" data-original="#000000" class="active-path" fill="#000000"/><path d="m273 46.183594c-30.332031-30.097656-70.414062-46.449219-112.910156-46.17968775-88.273438.03515625-160.089844 71.86328175-160.089844 160.14843775 0 2.941406.0859375 5.929687.253906 8.882812 1.699219 29.566406 12.121094 58.195313 30.136719 82.789063l12.019531 16.410156c7.328125 10.675781 12.734375 19.753906 16.722656 27.40625h85.9375v-60.316406c-22.632812-6.523438-39.242187-27.40625-39.242187-52.109375 0-8.28125 6.710937-14.992188 14.992187-14.992188 8.277344 0 14.992188 6.710938 14.992188 14.992188 0 13.371094 10.878906 24.25 24.25 24.25 13.375 0 24.253906-10.878906 24.253906-24.25 0-8.28125 6.710938-14.992188 14.988282-14.992188 8.28125 0 14.992187 6.710938 14.992187 14.992188 0 24.703125-16.609375 45.585937-39.242187 52.109375v60.316406h85.882812c5.226562-10.003906 11.71875-20.234375 18.058594-29.117187l11.328125-15.546876c13.195312-18.117187 22.144531-38.027343 26.59375-59.179687 2.242187-10.644531 3.378906-21.5 3.378906-32.265625 0-42.832031-16.796875-83.085938-47.296875-113.347656zm0 0" data-original="#000000" class="active-path" fill="#000000"/></g> </svg>
