<?xml version="1.0"?>
<svg xmlns="http://www.w3.org/2000/svg" height="512px" viewBox="-78 0 461 461.9" width="512px"><g><path d="m.449219 369.5c0 50.699219 41.5 92.398438 92.199219 92.398438h25c50.703124 0 91.800781-41.597657 91.800781-92.398438v-118.601562h-209zm0 0" data-original="#000000" class="active-path" fill="#000000"/><path d="m97.449219 120.898438h-4.800781c-50.699219 0-92.199219 40.902343-92.199219 91.601562v22.398438h97zm0 0" data-original="#000000" class="active-path" fill="#000000"/><path d="m117.648438 120.898438h-4.199219v114h96v-22.398438c.011719-24.332031-9.664063-47.664062-26.886719-64.851562-17.226562-17.1875-40.582031-26.8125-64.914062-26.75zm0 0" data-original="#000000" class="active-path" fill="#000000"/><path d="m296.449219 21c-4.410157.011719-7.984375 3.585938-8 8v35.5c0 20.710938-16.789063 37.5-37.5 37.5-20.710938 0-37.5-16.789062-37.5-37.5v-6.5c0-32.03125-25.964844-58-58-58-32.03125 0-58 25.96875-58 58v43.898438h16v-43.898438c0-23.195312 18.804687-42 42-42 23.195312 0 42 18.804688 42 42v6.5c0 29.546875 23.953125 53.5 53.5 53.5s53.5-23.953125 53.5-53.5v-35.5c-.011719-4.414062-3.585938-7.988281-8-8zm0 0" data-original="#000000" class="active-path" fill="#000000"/></g> </svg>
