<?xml version="1.0"?>
<svg xmlns="http://www.w3.org/2000/svg" height="512px" viewBox="0 -31 480 479" width="512px"><g><path d="m472 48.5h-8v280c0 13.253906-10.746094 24-24 24h-136c-40 0-40 16.207031-40 24 0 13.253906-10.746094 24-24 24s-24-10.746094-24-24c0-7.792969 0-24-40-24h-136c-13.253906 0-24-10.746094-24-24v-280h-8c-4.417969 0-8 3.582031-8 8v320c0 4.417969 3.582031 8 8 8h172.320312c7.601563 8.640625 31.199219 32 61.757813 32 20.882813 0 40.320313-10.800781 57.761719-32h172.160156c4.417969 0 8-3.582031 8-8v-320c0-4.417969-3.582031-8-8-8zm0 0" data-original="#000000" class="active-path" fill="#000000"/><path d="m440 .5h-136c-31.039062 0-53.039062 9.359375-64 26.480469-10.960938-17.121094-32.960938-26.480469-64-26.480469h-136c-4.417969 0-8 3.582031-8 8v320c0 4.417969 3.582031 8 8 8h136c37.199219 0 56 13.441406 56 40 0 4.417969 3.582031 8 8 8s8-3.582031 8-8c0-26.558594 18.800781-40 56-40h136c4.417969 0 8-3.582031 8-8v-320c0-4.417969-3.582031-8-8-8zm-256 272h-104c-4.417969 0-8-3.582031-8-8s3.582031-8 8-8h104c4.417969 0 8 3.582031 8 8s-3.582031 8-8 8zm0-48h-104c-4.417969 0-8-3.582031-8-8s3.582031-8 8-8h104c4.417969 0 8 3.582031 8 8s-3.582031 8-8 8zm0-48h-104c-4.417969 0-8-3.582031-8-8s3.582031-8 8-8h104c4.417969 0 8 3.582031 8 8s-3.582031 8-8 8zm0-48h-104c-4.417969 0-8-3.582031-8-8s3.582031-8 8-8h104c4.417969 0 8 3.582031 8 8s-3.582031 8-8 8zm0-48h-104c-4.417969 0-8-3.582031-8-8s3.582031-8 8-8h104c4.417969 0 8 3.582031 8 8s-3.582031 8-8 8zm64 264c0 4.417969-3.582031 8-8 8s-8-3.582031-8-8v-296c0-4.417969 3.582031-8 8-8s8 3.582031 8 8zm152-72h-104c-4.417969 0-8-3.582031-8-8s3.582031-8 8-8h104c4.417969 0 8 3.582031 8 8s-3.582031 8-8 8zm0-48h-104c-4.417969 0-8-3.582031-8-8s3.582031-8 8-8h104c4.417969 0 8 3.582031 8 8s-3.582031 8-8 8zm0-48h-104c-4.417969 0-8-3.582031-8-8s3.582031-8 8-8h104c4.417969 0 8 3.582031 8 8s-3.582031 8-8 8zm0-48h-104c-4.417969 0-8-3.582031-8-8s3.582031-8 8-8h104c4.417969 0 8 3.582031 8 8s-3.582031 8-8 8zm0-48h-104c-4.417969 0-8-3.582031-8-8s3.582031-8 8-8h104c4.417969 0 8 3.582031 8 8s-3.582031 8-8 8zm0 0" data-original="#000000" class="active-path" fill="#000000"/></g> </svg>
